<svg width="475" height="177" viewBox="0 0 475 177" fill="none" xmlns="http://www.w3.org/2000/svg">
<path d="M17.76 129C16.48 129 15.552 128.648 14.976 127.944C14.4 127.24 14.112 126.536 14.112 125.832L9.024 64.584C8.96 63.688 9.184 63.016 9.696 62.568C10.272 62.056 10.912 61.8 11.616 61.8H28.8C30.08 61.8 30.976 62.152 31.488 62.856C32.064 63.56 32.384 64.264 32.448 64.968L33.984 100.68L50.688 64.968C51.008 64.264 51.584 63.56 52.416 62.856C53.312 62.152 54.4 61.8 55.68 61.8H74.496C75.264 61.8 75.776 62.088 76.032 62.664C76.288 63.24 76.256 63.88 75.936 64.584L44.928 125.832C44.544 126.536 43.936 127.24 43.104 127.944C42.272 128.648 41.216 129 39.936 129H17.76ZM84.213 129.96C81.013 129.96 78.069 129.192 75.381 127.656C72.693 126.12 70.741 123.752 69.525 120.552C68.309 117.352 68.245 113.224 69.333 108.168L74.901 81.672C75.029 80.968 75.413 80.36 76.053 79.848C76.693 79.336 77.365 79.08 78.069 79.08H96.405C97.109 79.08 97.653 79.336 98.037 79.848C98.421 80.36 98.549 80.968 98.421 81.672L92.949 107.496C92.693 108.648 92.661 109.608 92.853 110.376C93.045 111.144 93.461 111.752 94.101 112.2C94.741 112.584 95.573 112.776 96.597 112.776C98.133 112.776 99.413 112.328 100.437 111.432C101.461 110.536 102.165 109.224 102.549 107.496L108.021 81.672C108.149 80.968 108.533 80.36 109.173 79.848C109.813 79.336 110.485 79.08 111.189 79.08H129.429C130.133 79.08 130.677 79.336 131.061 79.848C131.445 80.36 131.573 80.968 131.445 81.672L121.941 126.408C121.813 127.112 121.429 127.72 120.789 128.232C120.213 128.744 119.573 129 118.869 129H102.069C101.365 129 100.789 128.744 100.341 128.232C99.957 127.72 99.829 127.112 99.957 126.408L100.629 123.24C99.285 124.776 97.813 126.056 96.213 127.08C94.677 128.04 92.949 128.744 91.029 129.192C89.109 129.704 86.837 129.96 84.213 129.96ZM132.679 129C131.975 129 131.431 128.744 131.047 128.232C130.599 127.72 130.439 127.112 130.567 126.408L144.007 63.432C144.135 62.728 144.487 62.12 145.063 61.608C145.703 61.096 146.375 60.84 147.079 60.84H164.263C164.967 60.84 165.511 61.096 165.895 61.608C166.343 62.12 166.503 62.728 166.375 63.432L152.935 126.408C152.807 127.112 152.423 127.72 151.783 128.232C151.207 128.744 150.567 129 149.863 129H132.679ZM159.868 147.24C159.164 147.24 158.62 146.984 158.236 146.472C157.852 145.96 157.724 145.352 157.852 144.648L171.196 81.672C171.324 80.968 171.708 80.36 172.348 79.848C172.988 79.336 173.66 79.08 174.364 79.08H190.684C191.388 79.08 191.932 79.336 192.316 79.848C192.7 80.36 192.828 80.968 192.7 81.672L192.124 84.552C193.98 82.696 196.028 81.16 198.268 79.944C200.572 78.728 203.388 78.12 206.716 78.12C209.532 78.12 212.092 78.536 214.396 79.368C216.7 80.136 218.652 81.416 220.252 83.208C221.852 84.936 222.94 87.208 223.516 90.024C224.092 92.84 224.028 96.264 223.324 100.296C223.068 101.704 222.812 102.952 222.556 104.04C222.364 105.128 222.076 106.408 221.692 107.88C220.732 111.656 219.452 114.952 217.852 117.768C216.316 120.52 214.492 122.792 212.38 124.584C210.332 126.376 208.06 127.72 205.564 128.616C203.068 129.512 200.412 129.96 197.596 129.96C194.908 129.96 192.412 129.512 190.108 128.616C187.804 127.72 186.14 126.248 185.116 124.2L180.796 144.648C180.668 145.352 180.284 145.96 179.644 146.472C179.004 146.984 178.332 147.24 177.628 147.24H159.868ZM192.316 112.776C193.532 112.776 194.492 112.552 195.196 112.104C195.964 111.656 196.572 111.016 197.02 110.184C197.532 109.352 197.98 108.36 198.364 107.208C198.684 106.248 198.972 105.192 199.228 104.04C199.484 102.888 199.644 101.832 199.708 100.872C199.836 99.72 199.836 98.728 199.708 97.896C199.58 97.064 199.228 96.424 198.652 95.976C198.14 95.528 197.276 95.304 196.06 95.304C194.908 95.304 193.916 95.528 193.084 95.976C192.316 96.424 191.708 97.064 191.26 97.896C190.812 98.728 190.428 99.72 190.108 100.872C189.66 102.28 189.34 103.464 189.148 104.424C188.956 105.32 188.764 106.504 188.572 107.976C188.444 109 188.444 109.864 188.572 110.568C188.764 111.272 189.148 111.816 189.724 112.2C190.364 112.584 191.228 112.776 192.316 112.776ZM227.273 129C226.569 129 226.024 128.744 225.64 128.232C225.192 127.72 225.032 127.112 225.16 126.408L234.665 81.672C234.793 80.968 235.177 80.36 235.817 79.848C236.457 79.336 237.129 79.08 237.833 79.08H255.017C255.721 79.08 256.265 79.336 256.649 79.848C257.033 80.36 257.161 80.968 257.033 81.672L247.529 126.408C247.401 127.112 247.017 127.72 246.377 128.232C245.801 128.744 245.161 129 244.457 129H227.273ZM239.465 73.8C238.761 73.8 238.185 73.544 237.737 73.032C237.353 72.52 237.225 71.912 237.353 71.208L239.849 59.592C239.977 58.888 240.361 58.28 241.001 57.768C241.641 57.256 242.313 57 243.017 57H259.241C259.945 57 260.489 57.256 260.873 57.768C261.257 58.28 261.385 58.888 261.257 59.592L258.761 71.208C258.633 71.912 258.249 72.52 257.609 73.032C257.033 73.544 256.393 73.8 255.689 73.8H239.465ZM257.248 129C256.544 129 256 128.744 255.616 128.232C255.168 127.72 255.008 127.112 255.136 126.408L258.112 112.584C258.304 111.688 258.624 110.984 259.072 110.472C259.584 109.896 259.968 109.48 260.224 109.224L292.096 81.288H268.288C267.584 81.288 267.04 81.032 266.656 80.52C266.272 80.008 266.144 79.4 266.272 78.696L269.344 64.392C269.472 63.688 269.824 63.08 270.4 62.568C271.04 62.056 271.712 61.8 272.416 61.8H325.024C325.728 61.8 326.272 62.056 326.656 62.568C327.104 63.08 327.264 63.688 327.136 64.392L324.16 78.024C324.032 78.664 323.776 79.24 323.392 79.752C323.072 80.264 322.688 80.744 322.24 81.192L291.808 109.32H316.192C316.896 109.32 317.44 109.576 317.824 110.088C318.272 110.6 318.4 111.208 318.208 111.912L315.136 126.408C315.008 127.112 314.624 127.72 313.984 128.232C313.408 128.744 312.768 129 312.064 129H257.248Z" fill="white"/>
<path d="M357.287 136.594C376.075 184.182 437.79 164.845 441.767 159.36C441.767 156.937 443.275 150.582 445.195 145.234C410.087 177.325 368.533 153.995 357.287 136.594Z" fill="#EA5601"/>
<path d="M402.544 129.463C421.853 124.087 435.915 124.205 440.532 124.937L437.653 129.463C430.613 128.96 419.687 130.011 399.939 134.537C384.03 138.925 357.589 134.208 361.538 110.4C360.578 125.76 378.407 136.183 402.544 129.463Z" fill="#FC932D"/>
<path d="M428.053 143.588C435.733 144.576 444.693 140.8 448.213 138.788C446.239 142.409 445.378 144.594 445.195 145.234C410.087 177.325 368.533 153.995 357.287 136.594C350.923 121.344 359.344 106.971 364.282 101.623C353.447 125.348 372.28 140.875 399.939 134.537C419.687 130.011 430.613 128.96 437.653 129.463C436.457 131.323 433.329 135.887 428.52 142.906L428.053 143.588Z" fill="#FF6E01"/>
<path d="M408.303 124.8C424.54 120.85 437.743 121.234 442.314 121.92L440.532 124.937C435.915 124.205 421.853 124.087 402.544 129.463C378.407 136.183 360.578 125.76 361.538 110.4C361.758 107.437 363.367 103.405 364.144 101.76C365.022 100.772 365.606 100.434 365.789 100.388C362.087 107.657 363.485 115.748 366.474 119.314C377.168 132.071 388.006 129.737 408.303 124.8Z" fill="#F4C996"/>
<path d="M441.492 159.634C474.736 139.556 474.407 109.028 468.372 97.0969C467.166 115.748 450.497 121.463 442.314 121.92L440.532 124.937L437.653 129.463C436.457 131.323 433.329 135.887 428.52 142.906L428.053 143.588C435.733 144.576 444.693 140.8 448.213 138.788C447.939 139.657 446.155 142.217 445.195 145.234C443.275 150.582 441.492 157.211 441.492 159.634Z" fill="white"/>
<path d="M415.71 117.12C435.458 94.4912 414.201 76.3883 398.43 76.7997C395.358 80.3104 388.098 85.2111 384.852 87.2226C373.607 94.354 370.864 103.817 370.315 105.874C369.767 107.931 367.435 121.92 385.812 122.605C396.235 121.728 401.858 120.228 403.367 119.588C402.452 113.554 396.372 102.116 379.367 104.64C379.367 99.7026 390.887 94.7655 401.721 104.64C400.487 100.251 401.721 92.434 402.544 91.1998C407.344 93.6683 406.658 93.8055 409.95 118.491C411.001 118.125 413.625 117.339 415.71 117.12Z" fill="#FF6E01"/>
<path d="M427.504 110.537C434.224 82.9712 417.95 73.6912 408.304 69.8055C414.558 69.4764 418.224 66.8341 419.275 65.5541C412.802 62.7015 404.418 63.3598 401.035 64.0455C395.367 65.4627 383.152 67.2273 379.641 62.9484C381.15 63.0855 384.304 60.8913 383.618 58.5598C387.23 58.7427 396.196 57.6766 404.19 54.0341C415.024 49.097 432.578 42.2399 454.795 58.9713C436.692 60.617 430.932 62.6741 430.521 63.497C431.71 64.5027 435.815 66.6787 442.727 67.337C453.698 92.242 437.15 106.514 427.504 110.537Z" fill="white"/>
<path d="M402.132 35.1085C399.674 50.6767 387.697 53.8702 381.502 55.5218C379.59 54.2982 377.545 54.5688 376.761 54.857C378.078 53.6501 379.595 52.8913 380.19 52.6627C381.424 52.2513 384.386 51.6204 386.91 50.1942C398.155 44.8456 398.567 37.1656 398.567 36.0685C398.567 34.9713 401.035 28.2514 404.19 26.4685C409.127 22.0799 416.532 20.9828 419.824 20.8457C421.195 20.7542 424.432 20.7359 426.407 21.3942C432.578 23.0399 435.458 25.5085 439.298 29.2114C439.298 29.8513 439.051 30.9942 438.612 31.5428C424.624 17.4171 404.601 24.9599 402.132 35.1085Z" fill="#F4C996"/>
<path fill-rule="evenodd" clip-rule="evenodd" d="M381.561 55.5318C387.756 53.8802 399.674 50.6767 402.132 35.1085C404.601 24.9599 424.624 17.4171 438.612 31.5428C439.051 30.9942 439.298 29.8513 439.298 29.2114C440.212 30.0799 442.562 32.4479 444.647 34.9713C445.515 36.0228 447.527 38.5919 448.624 40.457C454 48.5759 461.652 54.9941 464.807 57.1884C464.075 57.5084 461.378 58.313 454.795 58.9713C432.578 42.2399 415.024 49.097 404.19 54.0341C396.196 57.6766 387.23 58.7427 383.618 58.5598C383.488 57.9973 382.94 56.6123 381.561 55.5318ZM416.258 44.9827C418.53 44.9827 420.372 43.1407 420.372 40.8685C420.372 38.5962 418.53 36.7542 416.258 36.7542C413.986 36.7542 412.144 38.5962 412.144 40.8685C412.144 43.1407 413.986 44.9827 416.258 44.9827Z" fill="#EA5601"/>
<path d="M431.481 77.0741C427.751 70.601 421.744 66.697 419.275 65.5541C418.087 66.9255 414.338 69.3941 409.264 69.6684C420.126 74.8249 428.692 76.8455 431.481 77.0741Z" fill="#D8D3FC"/>
<path d="M427.504 110.537C434.224 82.9712 417.95 73.6912 408.304 69.8055H402.27C401.502 72.9872 399.207 75.794 398.155 76.7997C413.927 76.3883 435.321 94.4318 415.572 117.06C416.898 116.877 420.647 116.516 425.584 116.297C426.352 114.103 427.184 111.543 427.504 110.537Z" fill="#EA5601"/>
<path d="M440.121 115.474C439.902 114.706 440.395 110.857 440.67 109.028C439.024 110.811 437.104 112.594 432.304 115.474H440.121Z" fill="#EA5601"/>
<path d="M406.658 24.6856C404.244 11.52 400.213 6.85712 398.567 5.21141C399.344 10.9714 401.556 23.3965 404.19 26.4685C405.506 25.3714 406.384 24.8228 406.658 24.6856Z" fill="white"/>
<path d="M406.658 24.6856C404.244 11.52 400.212 6.99427 398.567 5.34856C398.521 4.5257 398.128 2.30399 396.921 0C409.812 1.23428 421.332 12.6171 422.155 15.2228C420.729 17.9657 420.007 20.1142 419.824 20.8457C417.081 20.9828 410.608 21.9428 406.658 24.6856Z" fill="#EA5601"/>
<path d="M370.315 105.874C370.864 103.817 373.607 94.354 384.852 87.2226C387.23 85.7141 392.779 82.0112 395.961 79.2684C395.001 81.5541 391.71 87.0032 386.773 89.9655C380.601 93.6683 372.373 102.308 370.727 107.657C369.959 112.265 371.321 115.611 372.098 116.708C369.355 112.978 369.767 107.931 370.315 105.874Z" fill="#F4C996"/>
<path d="M379.367 104.64C396.372 102.116 402.452 113.554 403.367 119.588L401.584 120.137C397.195 104.091 380.738 106.56 378.133 106.697C378.242 105.709 379.001 104.914 379.367 104.64Z" fill="#F4C996"/>
<path d="M439.298 29.2114C442.26 17.5817 438.978 8.82283 436.967 5.89713C433.675 8.45712 426.955 15.1405 426.407 21.3942C432.852 22.9028 437.515 27.2914 439.298 29.2114Z" fill="white"/>
<path d="M443.001 1.64571C450.461 15.0308 447.207 29.4399 444.647 34.9713L439.298 29.2114C442.26 18.6788 438.978 9.27997 436.967 5.89713C437.378 5.39427 439.161 3.83999 443.001 1.64571Z" fill="#EA5601"/>
</svg>
