<svg width="1200" height="1200" viewBox="0 0 1200 1200" fill="none" xmlns="http://www.w3.org/2000/svg">
<rect width="1200" height="1200" rx="600" fill="url(#paint0_linear_460_302)"/>
<path d="M311.777 871.422C408.532 1116.49 726.343 1016.91 746.825 988.659C746.825 976.182 754.593 943.459 764.481 915.915C583.682 1081.18 369.689 961.031 311.777 871.422Z" fill="#EA5601"/>
<path d="M544.838 834.697C644.277 807.012 716.691 807.624 740.468 811.391L725.64 834.697C689.386 832.107 633.122 837.522 531.422 860.828C449.495 883.428 313.33 859.133 333.67 736.529C328.726 815.628 420.538 869.303 544.838 834.697Z" fill="#FC932D"/>
<path d="M676.203 907.44C715.753 912.525 761.895 893.08 780.022 882.722C769.854 901.367 765.425 912.619 764.481 915.915C583.682 1081.18 369.689 961.031 311.777 871.422C279.007 792.887 322.373 718.872 347.798 691.329C292.002 813.509 388.99 893.469 531.422 860.828C633.122 837.522 689.386 832.107 725.64 834.697C719.48 844.277 703.376 867.783 678.61 903.928L676.203 907.44Z" fill="#FF6E01"/>
<path d="M574.494 810.684C658.114 790.345 726.102 792.322 749.644 795.853L740.468 811.391C716.691 807.624 644.277 807.012 544.838 834.697C420.538 869.303 328.726 815.628 333.67 736.529C334.8 721.274 343.087 700.51 347.089 692.035C351.609 686.95 354.618 685.208 355.558 684.973C336.495 722.404 343.696 764.072 359.089 782.435C414.16 848.129 469.97 836.109 574.494 810.684Z" fill="#F4C996"/>
<path d="M745.412 990.071C916.606 886.677 914.912 729.466 883.837 668.023C877.622 764.072 791.783 793.499 749.644 795.853L740.468 811.391L725.64 834.697C719.48 844.277 703.376 867.783 678.61 903.928L676.203 907.44C715.753 912.525 761.895 893.08 780.022 882.722C778.609 887.195 769.424 900.378 764.481 915.915C754.593 943.459 745.412 977.594 745.412 990.071Z" fill="white"/>
<path d="M612.638 771.135C714.337 654.604 604.869 561.379 523.651 563.498C507.831 581.577 470.447 606.814 453.732 617.173C395.82 653.898 381.695 702.629 378.87 713.222C376.045 723.816 364.039 795.853 458.676 799.384C512.351 794.864 541.307 787.143 549.076 783.847C544.367 752.772 513.057 693.871 425.482 706.866C425.482 681.441 484.807 656.016 540.601 706.866C534.244 684.266 540.6 644.01 544.838 637.654C569.557 650.366 566.025 651.073 582.975 778.197C588.39 776.314 601.903 772.265 612.638 771.135Z" fill="#FF6E01"/>
<path d="M673.375 737.235C707.981 595.279 624.173 547.49 574.501 527.479C606.706 525.785 625.586 512.177 631 505.586C597.665 490.896 554.49 494.286 537.069 497.817C507.878 505.115 444.975 514.202 426.895 492.167C434.664 492.873 450.907 481.573 447.376 469.567C465.974 470.509 512.151 465.019 553.313 446.261C609.107 420.836 699.506 385.524 813.918 471.686C720.694 480.161 691.031 490.755 688.912 494.992C695.033 500.171 716.173 511.377 751.768 514.767C808.268 643.021 723.048 716.518 673.375 737.235Z" fill="white"/>
<path d="M542.72 348.799C530.061 428.971 468.381 445.417 436.48 453.922C426.634 447.621 416.1 449.014 412.064 450.499C418.844 444.284 426.659 440.376 429.72 439.199C436.076 437.08 451.331 433.831 464.326 426.486C522.238 398.943 524.357 359.393 524.357 353.743C524.357 348.093 537.07 313.487 553.313 304.306C578.738 281.706 616.875 276.056 633.825 275.349C640.888 274.879 657.555 274.784 667.725 278.174C699.506 286.649 714.337 299.362 734.112 318.431C734.112 321.726 732.841 327.612 730.581 330.437C658.544 257.693 555.432 296.537 542.72 348.799Z" fill="#F4C996"/>
<path fill-rule="evenodd" clip-rule="evenodd" d="M436.782 453.974C468.683 445.468 530.061 428.971 542.72 348.799C555.432 296.537 658.544 257.693 730.581 330.437C732.841 327.612 734.112 321.726 734.112 318.431C738.821 322.903 750.921 335.098 761.656 348.093C766.129 353.507 776.487 366.738 782.137 376.343C809.822 418.153 849.23 451.205 865.474 462.505C861.707 464.153 847.818 468.296 813.918 471.686C699.506 385.524 609.107 420.836 553.313 446.261C512.151 465.019 465.974 470.509 447.376 469.567C446.704 466.671 443.886 459.538 436.782 453.974ZM615.463 399.649C627.164 399.649 636.65 390.163 636.65 378.461C636.65 366.76 627.164 357.274 615.463 357.274C603.761 357.274 594.275 366.76 594.275 378.461C594.275 390.163 603.761 399.649 615.463 399.649Z" fill="#EA5601"/>
<path d="M693.856 564.911C674.646 531.576 643.713 511.471 631 505.586C624.879 512.648 605.575 525.361 579.444 526.773C635.379 553.328 679.496 563.733 693.856 564.911Z" fill="#D8D3FC"/>
<path d="M673.375 737.235C707.981 595.279 624.173 547.49 574.501 527.479H543.425C539.47 543.864 527.653 558.319 522.238 563.498C603.457 561.379 713.631 654.298 611.931 770.829C618.758 769.887 638.063 768.027 663.488 766.897C667.443 755.597 671.727 742.414 673.375 737.235Z" fill="#EA5601"/>
<path d="M738.35 762.66C737.22 758.705 739.762 738.883 741.175 729.466C732.7 738.647 722.812 747.828 698.094 762.66H738.35Z" fill="#EA5601"/>
<path d="M566.026 295.124C553.596 227.325 532.832 203.312 524.357 194.837C528.359 224.5 539.753 288.486 553.313 304.306C560.093 298.656 564.613 295.831 566.026 295.124Z" fill="white"/>
<path d="M566.026 295.124C553.596 227.325 532.832 204.019 524.357 195.544C524.122 191.306 522.097 179.865 515.882 168C582.269 174.356 641.594 232.975 645.831 246.393C638.486 260.518 634.767 271.583 633.825 275.349C619.7 276.056 586.366 280.999 566.026 295.124Z" fill="#EA5601"/>
<path d="M378.87 713.222C381.695 702.629 395.82 653.898 453.732 617.173C465.974 609.404 494.553 590.335 510.938 576.211C505.994 587.981 489.045 616.043 463.62 631.298C431.839 650.366 389.464 694.86 380.989 722.404C377.034 746.133 384.049 763.366 388.051 769.016C373.927 749.806 376.045 723.816 378.87 713.222Z" fill="#F4C996"/>
<path d="M425.482 706.866C513.057 693.871 544.367 752.772 549.076 783.847L539.894 786.672C517.294 704.041 432.545 716.754 419.126 717.46C419.691 712.375 423.599 708.279 425.482 706.866Z" fill="#F4C996"/>
<path d="M734.112 318.431C749.367 258.541 732.464 213.435 722.106 198.369C705.156 211.552 670.55 245.97 667.725 278.174C700.919 285.943 724.931 308.543 734.112 318.431Z" fill="white"/>
<path d="M753.181 176.475C791.601 245.405 774.839 319.608 761.656 348.093L734.112 318.431C749.367 264.191 732.464 215.789 722.106 198.369C724.225 195.779 733.406 187.775 753.181 176.475Z" fill="#EA5601"/>
<defs>
<linearGradient id="paint0_linear_460_302" x1="600" y1="0" x2="600" y2="1200" gradientUnits="userSpaceOnUse">
<stop stop-color="#1D0F3D"/>
<stop offset="1" stop-color="#5B1684"/>
</linearGradient>
</defs>
</svg>
